# MagicaVoxel @ Ephtracy

# group
o 

# material
mtllib arrow.mtl
usemtl palette

# normals
vn -1 0 0
vn 1 0 0
vn 0 0 1
vn 0 0 -1
vn 0 -1 0
vn 0 1 0

# texcoords
vt 0.294922 0.5
vt 0.751953 0.5
vt 0.783203 0.5
vt 0.802734 0.5
vt 0.810547 0.5
vt 0.978516 0.5

# verts
v -2 0 2
v -2 0 -2
v -2 4 2
v -2 4 -2
v 2 0 2
v 2 0 -2
v 2 4 2
v 2 4 -2
v -2 0 2
v -2 4 2
v 2 0 2
v 2 4 2
v -2 0 -2
v -2 4 -2
v 2 0 -2
v 2 4 -2
v -2 0 2
v 2 0 2
v -2 0 -2
v 2 0 -2
v -2 4 2
v 2 4 2
v 0.2 4 1.7
v 0.3 4 1.7
v 0.1 4 1.6
v 0.2 4 1.6
v 0.3 4 1.6
v 0.4 4 1.6
v 2.38419e-07 4 1.5
v 0.1 4 1.5
v 0.2 4 1.5
v 0.3 4 1.5
v 0.4 4 1.5
v 0.5 4 1.5
v 0.1 4 1.4
v 0.2 4 1.4
v 0.3 4 1.4
v 0.4 4 1.4
v 0.5 4 1.4
v 0.6 4 1.4
v 0.4 4 1.3
v 0.5 4 1.3
v 0.6 4 1.3
v 0.7 4 1.3
v 0.5 4 1.2
v 0.6 4 1.2
v 0.7 4 1.2
v 0.8 4 1.2
v 2.38419e-07 4 1.1
v 0.1 4 1.1
v 0.2 4 1.1
v 0.3 4 1.1
v 0.6 4 1.1
v 0.7 4 1.1
v 0.8 4 1.1
v 0.9 4 1.1
v 0.1 4 1
v 0.2 4 1
v 0.3 4 1
v 0.4 4 1
v 0.7 4 1
v 0.8 4 1
v 0.9 4 1
v 1 4 1
v 0.2 4 0.9
v 0.3 4 0.9
v 0.4 4 0.9
v 0.5 4 0.9
v 0.8 4 0.9
v 0.9 4 0.9
v 1 4 0.9
v 1.1 4 0.9
v 0.3 4 0.8
v 0.4 4 0.8
v 0.5 4 0.8
v 0.6 4 0.8
v 0.9 4 0.8
v 1 4 0.8
v 1.1 4 0.8
v 1.2 4 0.8
v 0.4 4 0.7
v 0.5 4 0.7
v 0.6 4 0.7
v 0.7 4 0.7
v 1 4 0.7
v 1.1 4 0.7
v 1.2 4 0.7
v 1.3 4 0.7
v 0.5 4 0.6
v 0.6 4 0.6
v 0.7 4 0.6
v 0.8 4 0.6
v 1.1 4 0.6
v 1.2 4 0.6
v 1.3 4 0.6
v 1.4 4 0.6
v 0.6 4 0.5
v 0.7 4 0.5
v 0.8 4 0.5
v 0.9 4 0.5
v 1.2 4 0.5
v 1.3 4 0.5
v 1.4 4 0.5
v 1.5 4 0.5
v -1.7 4 0.4
v 0.7 4 0.4
v 0.8 4 0.4
v 0.9 4 0.4
v 1 4 0.4
v 1.3 4 0.4
v 1.4 4 0.4
v 1.5 4 0.4
v 1.6 4 0.4
v -1.8 4 0.3
v -1.7 4 0.3
v 0.9 4 0.3
v 1 4 0.3
v 1.1 4 0.3
v 1.4 4 0.3
v 1.5 4 0.3
v 1.6 4 0.3
v 1.7 4 0.3
v -1.9 4 0.2
v -1.8 4 0.2
v -1.7 4 0.2
v 1.1 4 0.2
v 1.5 4 0.2
v 1.6 4 0.2
v 1.7 4 0.2
v 1.8 4 0.2
v 1.6 4 0.0999999
v 1.7 4 0.0999999
v 1.8 4 0.0999999
v 1.9 4 0.0999999
v 1.6 4 -2.38419e-07
v 1.7 4 -2.38419e-07
v 1.8 4 -2.38419e-07
v 1.9 4 -2.38419e-07
v -1.9 4 -0.1
v -1.8 4 -0.1
v -1.7 4 -0.1
v 1.1 4 -0.1
v 1.5 4 -0.1
v 1.6 4 -0.1
v 1.7 4 -0.1
v 1.8 4 -0.1
v -1.8 4 -0.2
v -1.7 4 -0.2
v 0.9 4 -0.2
v 1 4 -0.2
v 1.1 4 -0.2
v 1.4 4 -0.2
v 1.5 4 -0.2
v 1.6 4 -0.2
v 1.7 4 -0.2
v -1.7 4 -0.3
v 0.7 4 -0.3
v 0.8 4 -0.3
v 0.9 4 -0.3
v 1 4 -0.3
v 1.3 4 -0.3
v 1.4 4 -0.3
v 1.5 4 -0.3
v 1.6 4 -0.3
v 0.6 4 -0.4
v 0.7 4 -0.4
v 0.8 4 -0.4
v 0.9 4 -0.4
v 1.2 4 -0.4
v 1.3 4 -0.4
v 1.4 4 -0.4
v 1.5 4 -0.4
v 0.5 4 -0.5
v 0.6 4 -0.5
v 0.7 4 -0.5
v 0.8 4 -0.5
v 1.1 4 -0.5
v 1.2 4 -0.5
v 1.3 4 -0.5
v 1.4 4 -0.5
v 0.4 4 -0.6
v 0.5 4 -0.6
v 0.6 4 -0.6
v 0.7 4 -0.6
v 1 4 -0.6
v 1.1 4 -0.6
v 1.2 4 -0.6
v 1.3 4 -0.6
v 0.3 4 -0.7
v 0.4 4 -0.7
v 0.5 4 -0.7
v 0.6 4 -0.7
v 0.9 4 -0.7
v 1 4 -0.7
v 1.1 4 -0.7
v 1.2 4 -0.7
v 0.2 4 -0.8
v 0.3 4 -0.8
v 0.4 4 -0.8
v 0.5 4 -0.8
v 0.8 4 -0.8
v 0.9 4 -0.8
v 1 4 -0.8
v 1.1 4 -0.8
v 0.1 4 -0.9
v 0.2 4 -0.9
v 0.3 4 -0.9
v 0.4 4 -0.9
v 0.7 4 -0.9
v 0.8 4 -0.9
v 0.9 4 -0.9
v 1 4 -0.9
v 2.38419e-07 4 -1
v 0.1 4 -1
v 0.2 4 -1
v 0.3 4 -1
v 0.6 4 -1
v 0.7 4 -1
v 0.8 4 -1
v 0.9 4 -1
v 0.5 4 -1.1
v 0.6 4 -1.1
v 0.7 4 -1.1
v 0.8 4 -1.1
v 0.4 4 -1.2
v 0.5 4 -1.2
v 0.6 4 -1.2
v 0.7 4 -1.2
v 0.1 4 -1.3
v 0.2 4 -1.3
v 0.3 4 -1.3
v 0.4 4 -1.3
v 0.5 4 -1.3
v 0.6 4 -1.3
v 2.38419e-07 4 -1.4
v 0.1 4 -1.4
v 0.2 4 -1.4
v 0.3 4 -1.4
v 0.4 4 -1.4
v 0.5 4 -1.4
v 0.1 4 -1.5
v 0.2 4 -1.5
v 0.3 4 -1.5
v 0.4 4 -1.5
v 0.2 4 -1.6
v 0.3 4 -1.6
v -2 4 -2
v 2 4 -2

# faces
f 3/6/1 2/6/1 1/6/1
f 4/6/1 2/6/1 3/6/1
f 5/6/2 6/6/2 7/6/2
f 7/6/2 6/6/2 8/6/2
f 11/6/3 10/6/3 9/6/3
f 12/6/3 10/6/3 11/6/3
f 13/6/4 14/6/4 15/6/4
f 15/6/4 14/6/4 16/6/4
f 19/6/5 18/6/5 17/6/5
f 20/6/5 18/6/5 19/6/5
f 21/6/6 22/6/6 23/6/6
f 23/6/6 22/6/6 24/6/6
f 21/6/6 23/6/6 25/6/6
f 23/5/6 24/5/6 26/5/6
f 25/6/6 23/6/6 26/6/6
f 24/6/6 22/6/6 27/6/6
f 26/5/6 24/5/6 27/5/6
f 27/6/6 22/6/6 28/6/6
f 21/6/6 25/6/6 29/6/6
f 25/5/6 26/5/6 30/5/6
f 29/6/6 25/6/6 30/6/6
f 26/3/6 27/3/6 31/3/6
f 30/5/6 26/5/6 31/5/6
f 27/5/6 28/5/6 32/5/6
f 31/3/6 27/3/6 32/3/6
f 28/6/6 22/6/6 33/6/6
f 32/5/6 28/5/6 33/5/6
f 33/6/6 22/6/6 34/6/6
f 29/5/6 30/5/6 35/5/6
f 30/3/6 31/3/6 35/3/6
f 31/4/6 32/4/6 36/4/6
f 35/3/6 31/3/6 36/3/6
f 32/3/6 33/3/6 37/3/6
f 36/4/6 32/4/6 37/4/6
f 33/5/6 34/5/6 38/5/6
f 37/3/6 33/3/6 38/3/6
f 34/6/6 22/6/6 39/6/6
f 38/5/6 34/5/6 39/5/6
f 39/6/6 22/6/6 40/6/6
f 37/4/6 38/4/6 41/4/6
f 36/4/6 37/4/6 41/4/6
f 38/3/6 39/3/6 41/3/6
f 39/5/6 40/5/6 42/5/6
f 41/3/6 39/3/6 42/3/6
f 40/6/6 22/6/6 43/6/6
f 42/5/6 40/5/6 43/5/6
f 43/6/6 22/6/6 44/6/6
f 41/4/6 42/4/6 45/4/6
f 42/3/6 43/3/6 45/3/6
f 43/5/6 44/5/6 46/5/6
f 45/3/6 43/3/6 46/3/6
f 44/6/6 22/6/6 47/6/6
f 46/5/6 44/5/6 47/5/6
f 47/6/6 22/6/6 48/6/6
f 21/6/6 29/6/6 49/6/6
f 29/5/6 35/5/6 49/5/6
f 35/2/6 36/2/6 50/2/6
f 49/5/6 35/5/6 50/5/6
f 45/4/6 46/4/6 51/4/6
f 50/2/6 36/2/6 51/2/6
f 36/4/6 41/4/6 51/4/6
f 41/4/6 45/4/6 51/4/6
f 51/4/6 46/4/6 52/4/6
f 46/3/6 47/3/6 53/3/6
f 52/4/6 46/4/6 53/4/6
f 47/5/6 48/5/6 54/5/6
f 53/3/6 47/3/6 54/3/6
f 48/6/6 22/6/6 55/6/6
f 54/5/6 48/5/6 55/5/6
f 55/6/6 22/6/6 56/6/6
f 49/6/6 50/6/6 57/6/6
f 50/5/6 51/5/6 57/5/6
f 51/2/6 52/2/6 58/2/6
f 57/5/6 51/5/6 58/5/6
f 53/4/6 54/4/6 59/4/6
f 58/2/6 52/2/6 59/2/6
f 52/4/6 53/4/6 59/4/6
f 59/4/6 54/4/6 60/4/6
f 54/3/6 55/3/6 61/3/6
f 60/4/6 54/4/6 61/4/6
f 55/5/6 56/5/6 62/5/6
f 61/3/6 55/3/6 62/3/6
f 56/6/6 22/6/6 63/6/6
f 62/5/6 56/5/6 63/5/6
f 63/6/6 22/6/6 64/6/6
f 57/6/6 58/6/6 65/6/6
f 58/5/6 59/5/6 65/5/6
f 59/2/6 60/2/6 66/2/6
f 65/5/6 59/5/6 66/5/6
f 61/4/6 62/4/6 67/4/6
f 66/2/6 60/2/6 67/2/6
f 60/4/6 61/4/6 67/4/6
f 67/4/6 62/4/6 68/4/6
f 62/3/6 63/3/6 69/3/6
f 68/4/6 62/4/6 69/4/6
f 63/5/6 64/5/6 70/5/6
f 69/3/6 63/3/6 70/3/6
f 64/6/6 22/6/6 71/6/6
f 70/5/6 64/5/6 71/5/6
f 71/6/6 22/6/6 72/6/6
f 65/6/6 66/6/6 73/6/6
f 66/5/6 67/5/6 73/5/6
f 67/2/6 68/2/6 74/2/6
f 73/5/6 67/5/6 74/5/6
f 69/4/6 70/4/6 75/4/6
f 74/2/6 68/2/6 75/2/6
f 68/4/6 69/4/6 75/4/6
f 75/4/6 70/4/6 76/4/6
f 70/3/6 71/3/6 77/3/6
f 76/4/6 70/4/6 77/4/6
f 71/5/6 72/5/6 78/5/6
f 77/3/6 71/3/6 78/3/6
f 72/6/6 22/6/6 79/6/6
f 78/5/6 72/5/6 79/5/6
f 79/6/6 22/6/6 80/6/6
f 73/6/6 74/6/6 81/6/6
f 74/5/6 75/5/6 81/5/6
f 75/2/6 76/2/6 82/2/6
f 81/5/6 75/5/6 82/5/6
f 77/4/6 78/4/6 83/4/6
f 82/2/6 76/2/6 83/2/6
f 76/4/6 77/4/6 83/4/6
f 83/4/6 78/4/6 84/4/6
f 78/3/6 79/3/6 85/3/6
f 84/4/6 78/4/6 85/4/6
f 79/5/6 80/5/6 86/5/6
f 85/3/6 79/3/6 86/3/6
f 80/6/6 22/6/6 87/6/6
f 86/5/6 80/5/6 87/5/6
f 87/6/6 22/6/6 88/6/6
f 81/6/6 82/6/6 89/6/6
f 82/5/6 83/5/6 89/5/6
f 83/2/6 84/2/6 90/2/6
f 89/5/6 83/5/6 90/5/6
f 85/4/6 86/4/6 91/4/6
f 90/2/6 84/2/6 91/2/6
f 84/4/6 85/4/6 91/4/6
f 91/4/6 86/4/6 92/4/6
f 86/3/6 87/3/6 93/3/6
f 92/4/6 86/4/6 93/4/6
f 87/5/6 88/5/6 94/5/6
f 93/3/6 87/3/6 94/3/6
f 88/6/6 22/6/6 95/6/6
f 94/5/6 88/5/6 95/5/6
f 95/6/6 22/6/6 96/6/6
f 89/6/6 90/6/6 97/6/6
f 90/5/6 91/5/6 97/5/6
f 91/2/6 92/2/6 98/2/6
f 97/5/6 91/5/6 98/5/6
f 93/4/6 94/4/6 99/4/6
f 98/2/6 92/2/6 99/2/6
f 92/4/6 93/4/6 99/4/6
f 99/4/6 94/4/6 100/4/6
f 94/3/6 95/3/6 101/3/6
f 100/4/6 94/4/6 101/4/6
f 95/5/6 96/5/6 102/5/6
f 101/3/6 95/3/6 102/3/6
f 96/6/6 22/6/6 103/6/6
f 102/5/6 96/5/6 103/5/6
f 103/6/6 22/6/6 104/6/6
f 57/6/6 65/6/6 105/6/6
f 97/6/6 98/6/6 105/6/6
f 49/6/6 57/6/6 105/6/6
f 21/6/6 49/6/6 105/6/6
f 65/6/6 73/6/6 105/6/6
f 73/6/6 81/6/6 105/6/6
f 81/6/6 89/6/6 105/6/6
f 89/6/6 97/6/6 105/6/6
f 98/5/6 99/5/6 106/5/6
f 105/6/6 98/6/6 106/6/6
f 99/2/6 100/2/6 107/2/6
f 106/5/6 99/5/6 107/5/6
f 101/4/6 102/4/6 108/4/6
f 107/2/6 100/2/6 108/2/6
f 100/4/6 101/4/6 108/4/6
f 108/4/6 102/4/6 109/4/6
f 102/3/6 103/3/6 110/3/6
f 109/4/6 102/4/6 110/4/6
f 103/5/6 104/5/6 111/5/6
f 110/3/6 103/3/6 111/3/6
f 104/6/6 22/6/6 112/6/6
f 111/5/6 104/5/6 112/5/6
f 112/6/6 22/6/6 113/6/6
f 21/6/6 105/6/6 114/6/6
f 106/5/6 107/5/6 115/5/6
f 114/6/6 105/6/6 115/6/6
f 105/5/6 106/5/6 115/5/6
f 107/5/6 108/5/6 115/5/6
f 108/2/6 109/2/6 116/2/6
f 115/5/6 108/5/6 116/5/6
f 110/4/6 111/4/6 117/4/6
f 116/2/6 109/2/6 117/2/6
f 109/4/6 110/4/6 117/4/6
f 117/4/6 111/4/6 118/4/6
f 111/3/6 112/3/6 119/3/6
f 118/4/6 111/4/6 119/4/6
f 112/5/6 113/5/6 120/5/6
f 119/3/6 112/3/6 120/3/6
f 113/6/6 22/6/6 121/6/6
f 120/5/6 113/5/6 121/5/6
f 121/6/6 22/6/6 122/6/6
f 21/6/6 114/6/6 123/6/6
f 114/5/6 115/5/6 124/5/6
f 123/6/6 114/6/6 124/6/6
f 115/2/6 116/2/6 125/2/6
f 124/5/6 115/5/6 125/5/6
f 117/2/6 118/2/6 125/2/6
f 116/2/6 117/2/6 125/2/6
f 119/4/6 120/4/6 126/4/6
f 125/2/6 118/2/6 126/2/6
f 118/4/6 119/4/6 126/4/6
f 120/3/6 121/3/6 127/3/6
f 126/4/6 120/4/6 127/4/6
f 121/5/6 122/5/6 128/5/6
f 127/3/6 121/3/6 128/3/6
f 122/6/6 22/6/6 129/6/6
f 128/5/6 122/5/6 129/5/6
f 129/6/6 22/6/6 130/6/6
f 127/4/6 128/4/6 131/4/6
f 126/4/6 127/4/6 131/4/6
f 125/4/6 126/4/6 131/4/6
f 128/3/6 129/3/6 131/3/6
f 129/5/6 130/5/6 132/5/6
f 131/3/6 129/3/6 132/3/6
f 130/6/6 22/6/6 133/6/6
f 132/5/6 130/5/6 133/5/6
f 133/6/6 22/6/6 134/6/6
f 131/4/6 132/4/6 135/4/6
f 125/4/6 131/4/6 135/4/6
f 132/3/6 133/3/6 136/3/6
f 135/4/6 132/4/6 136/4/6
f 133/5/6 134/5/6 137/5/6
f 136/3/6 133/3/6 137/3/6
f 134/6/6 22/6/6 138/6/6
f 137/5/6 134/5/6 138/5/6
f 123/5/6 124/5/6 139/5/6
f 21/6/6 123/6/6 139/6/6
f 124/2/6 125/2/6 140/2/6
f 139/5/6 124/5/6 140/5/6
f 125/4/6 135/4/6 141/4/6
f 140/2/6 125/2/6 141/2/6
f 141/4/6 135/4/6 142/4/6
f 142/4/6 135/4/6 143/4/6
f 135/3/6 136/3/6 144/3/6
f 143/4/6 135/4/6 144/4/6
f 136/5/6 137/5/6 145/5/6
f 144/3/6 136/3/6 145/3/6
f 137/6/6 138/6/6 146/6/6
f 145/5/6 137/5/6 146/5/6
f 139/6/6 140/6/6 147/6/6
f 140/5/6 141/5/6 147/5/6
f 141/2/6 142/2/6 148/2/6
f 147/5/6 141/5/6 148/5/6
f 148/2/6 142/2/6 149/2/6
f 149/2/6 142/2/6 150/2/6
f 142/4/6 143/4/6 151/4/6
f 150/2/6 142/2/6 151/2/6
f 151/4/6 143/4/6 152/4/6
f 143/3/6 144/3/6 153/3/6
f 152/4/6 143/4/6 153/4/6
f 144/5/6 145/5/6 154/5/6
f 153/3/6 144/3/6 154/3/6
f 145/6/6 146/6/6 155/6/6
f 154/5/6 145/5/6 155/5/6
f 147/6/6 148/6/6 156/6/6
f 148/5/6 149/5/6 156/5/6
f 156/5/6 149/5/6 157/5/6
f 157/5/6 149/5/6 158/5/6
f 149/2/6 150/2/6 159/2/6
f 158/5/6 149/5/6 159/5/6
f 151/4/6 152/4/6 160/4/6
f 159/2/6 150/2/6 160/2/6
f 150/4/6 151/4/6 160/4/6
f 160/4/6 152/4/6 161/4/6
f 152/3/6 153/3/6 162/3/6
f 161/4/6 152/4/6 162/4/6
f 153/5/6 154/5/6 163/5/6
f 162/3/6 153/3/6 163/3/6
f 154/6/6 155/6/6 164/6/6
f 163/5/6 154/5/6 164/5/6
f 156/6/6 157/6/6 165/6/6
f 157/5/6 158/5/6 166/5/6
f 165/6/6 157/6/6 166/6/6
f 158/2/6 159/2/6 167/2/6
f 166/5/6 158/5/6 167/5/6
f 160/4/6 161/4/6 168/4/6
f 167/2/6 159/2/6 168/2/6
f 159/4/6 160/4/6 168/4/6
f 168/4/6 161/4/6 169/4/6
f 161/3/6 162/3/6 170/3/6
f 169/4/6 161/4/6 170/4/6
f 162/5/6 163/5/6 171/5/6
f 170/3/6 162/3/6 171/3/6
f 163/6/6 164/6/6 172/6/6
f 171/5/6 163/5/6 172/5/6
f 156/6/6 165/6/6 173/6/6
f 165/5/6 166/5/6 174/5/6
f 173/6/6 165/6/6 174/6/6
f 166/2/6 167/2/6 175/2/6
f 174/5/6 166/5/6 175/5/6
f 168/4/6 169/4/6 176/4/6
f 175/2/6 167/2/6 176/2/6
f 167/4/6 168/4/6 176/4/6
f 176/4/6 169/4/6 177/4/6
f 169/3/6 170/3/6 178/3/6
f 177/4/6 169/4/6 178/4/6
f 170/5/6 171/5/6 179/5/6
f 178/3/6 170/3/6 179/3/6
f 171/6/6 172/6/6 180/6/6
f 179/5/6 171/5/6 180/5/6
f 156/6/6 173/6/6 181/6/6
f 173/5/6 174/5/6 182/5/6
f 181/6/6 173/6/6 182/6/6
f 174/2/6 175/2/6 183/2/6
f 182/5/6 174/5/6 183/5/6
f 176/4/6 177/4/6 184/4/6
f 183/2/6 175/2/6 184/2/6
f 175/4/6 176/4/6 184/4/6
f 184/4/6 177/4/6 185/4/6
f 177/3/6 178/3/6 186/3/6
f 185/4/6 177/4/6 186/4/6
f 178/5/6 179/5/6 187/5/6
f 186/3/6 178/3/6 187/3/6
f 179/6/6 180/6/6 188/6/6
f 187/5/6 179/5/6 188/5/6
f 156/6/6 181/6/6 189/6/6
f 181/5/6 182/5/6 190/5/6
f 189/6/6 181/6/6 190/6/6
f 182/2/6 183/2/6 191/2/6
f 190/5/6 182/5/6 191/5/6
f 184/4/6 185/4/6 192/4/6
f 191/2/6 183/2/6 192/2/6
f 183/4/6 184/4/6 192/4/6
f 192/4/6 185/4/6 193/4/6
f 185/3/6 186/3/6 194/3/6
f 193/4/6 185/4/6 194/4/6
f 186/5/6 187/5/6 195/5/6
f 194/3/6 186/3/6 195/3/6
f 187/6/6 188/6/6 196/6/6
f 195/5/6 187/5/6 196/5/6
f 156/6/6 189/6/6 197/6/6
f 189/5/6 190/5/6 198/5/6
f 197/6/6 189/6/6 198/6/6
f 190/2/6 191/2/6 199/2/6
f 198/5/6 190/5/6 199/5/6
f 192/4/6 193/4/6 200/4/6
f 199/2/6 191/2/6 200/2/6
f 191/4/6 192/4/6 200/4/6
f 200/4/6 193/4/6 201/4/6
f 193/3/6 194/3/6 202/3/6
f 201/4/6 193/4/6 202/4/6
f 194/5/6 195/5/6 203/5/6
f 202/3/6 194/3/6 203/3/6
f 195/6/6 196/6/6 204/6/6
f 203/5/6 195/5/6 204/5/6
f 156/6/6 197/6/6 205/6/6
f 197/5/6 198/5/6 206/5/6
f 205/6/6 197/6/6 206/6/6
f 198/2/6 199/2/6 207/2/6
f 206/5/6 198/5/6 207/5/6
f 200/4/6 201/4/6 208/4/6
f 207/2/6 199/2/6 208/2/6
f 199/4/6 200/4/6 208/4/6
f 208/4/6 201/4/6 209/4/6
f 201/3/6 202/3/6 210/3/6
f 209/4/6 201/4/6 210/4/6
f 202/5/6 203/5/6 211/5/6
f 210/3/6 202/3/6 211/3/6
f 203/6/6 204/6/6 212/6/6
f 211/5/6 203/5/6 212/5/6
f 156/6/6 205/6/6 213/6/6
f 205/5/6 206/5/6 214/5/6
f 213/6/6 205/6/6 214/6/6
f 206/2/6 207/2/6 215/2/6
f 214/5/6 206/5/6 215/5/6
f 208/4/6 209/4/6 216/4/6
f 215/2/6 207/2/6 216/2/6
f 207/4/6 208/4/6 216/4/6
f 216/4/6 209/4/6 217/4/6
f 209/3/6 210/3/6 218/3/6
f 217/4/6 209/4/6 218/4/6
f 210/5/6 211/5/6 219/5/6
f 218/3/6 210/3/6 219/3/6
f 211/6/6 212/6/6 220/6/6
f 219/5/6 211/5/6 220/5/6
f 216/4/6 217/4/6 221/4/6
f 215/4/6 216/4/6 221/4/6
f 217/3/6 218/3/6 222/3/6
f 221/4/6 217/4/6 222/4/6
f 218/5/6 219/5/6 223/5/6
f 222/3/6 218/3/6 223/3/6
f 219/6/6 220/6/6 224/6/6
f 223/5/6 219/5/6 224/5/6
f 215/4/6 221/4/6 225/4/6
f 221/3/6 222/3/6 226/3/6
f 225/4/6 221/4/6 226/4/6
f 222/5/6 223/5/6 227/5/6
f 226/3/6 222/3/6 227/3/6
f 223/6/6 224/6/6 228/6/6
f 227/5/6 223/5/6 228/5/6
f 213/5/6 214/5/6 229/5/6
f 214/2/6 215/2/6 229/2/6
f 215/4/6 225/4/6 230/4/6
f 229/2/6 215/2/6 230/2/6
f 230/4/6 225/4/6 231/4/6
f 225/3/6 226/3/6 232/3/6
f 231/4/6 225/4/6 232/4/6
f 226/5/6 227/5/6 233/5/6
f 232/3/6 226/3/6 233/3/6
f 227/6/6 228/6/6 234/6/6
f 233/5/6 227/5/6 234/5/6
f 156/6/6 213/6/6 235/6/6
f 213/5/6 229/5/6 235/5/6
f 229/3/6 230/3/6 236/3/6
f 235/5/6 229/5/6 236/5/6
f 230/4/6 231/4/6 237/4/6
f 236/3/6 230/3/6 237/3/6
f 231/3/6 232/3/6 238/3/6
f 237/4/6 231/4/6 238/4/6
f 232/5/6 233/5/6 239/5/6
f 238/3/6 232/3/6 239/3/6
f 233/6/6 234/6/6 240/6/6
f 239/5/6 233/5/6 240/5/6
f 235/6/6 236/6/6 241/6/6
f 236/5/6 237/5/6 241/5/6
f 237/3/6 238/3/6 242/3/6
f 241/5/6 237/5/6 242/5/6
f 238/5/6 239/5/6 243/5/6
f 242/3/6 238/3/6 243/3/6
f 239/6/6 240/6/6 244/6/6
f 243/5/6 239/5/6 244/5/6
f 241/6/6 242/6/6 245/6/6
f 242/5/6 243/5/6 245/5/6
f 243/6/6 244/6/6 246/6/6
f 245/5/6 243/5/6 246/5/6
f 21/6/6 139/6/6 247/6/6
f 139/6/6 147/6/6 247/6/6
f 245/6/6 246/6/6 247/6/6
f 156/6/6 235/6/6 247/6/6
f 241/6/6 245/6/6 247/6/6
f 147/6/6 156/6/6 247/6/6
f 235/6/6 241/6/6 247/6/6
f 180/6/6 172/6/6 248/6/6
f 247/6/6 246/6/6 248/6/6
f 138/6/6 22/6/6 248/6/6
f 220/6/6 212/6/6 248/6/6
f 224/6/6 220/6/6 248/6/6
f 228/6/6 224/6/6 248/6/6
f 234/6/6 228/6/6 248/6/6
f 212/6/6 204/6/6 248/6/6
f 244/6/6 240/6/6 248/6/6
f 164/6/6 155/6/6 248/6/6
f 204/6/6 196/6/6 248/6/6
f 155/6/6 146/6/6 248/6/6
f 240/6/6 234/6/6 248/6/6
f 196/6/6 188/6/6 248/6/6
f 146/6/6 138/6/6 248/6/6
f 246/6/6 244/6/6 248/6/6
f 188/6/6 180/6/6 248/6/6
f 172/6/6 164/6/6 248/6/6
